<mxfile host="Electron" modified="2023-09-25T09:30:54.609Z" agent="Mozilla/5.0 (Windows NT 10.0; Win64; x64) AppleWebKit/537.36 (KHTML, like Gecko) draw.io/21.7.5 Chrome/114.0.5735.289 Electron/25.8.1 Safari/537.36" etag="_bgmG_HxybbXRfvYk2vJ" version="21.7.5" type="device">
  <diagram name="Seite-1" id="PgmqdzP3HbmkdX3xIRE-">
    <mxGraphModel dx="1036" dy="614" grid="1" gridSize="10" guides="1" tooltips="1" connect="1" arrows="1" fold="1" page="1" pageScale="1" pageWidth="827" pageHeight="1169" math="0" shadow="0">
      <root>
        <mxCell id="0" />
        <mxCell id="1" parent="0" />
        <mxCell id="LPqlqlBXjNiI8-WdypCB-1" value="«SensorScript»&lt;br&gt;&lt;b&gt;SomeSensor.py&lt;/b&gt;" style="html=1;dropTarget=0;whiteSpace=wrap;" parent="1" vertex="1">
          <mxGeometry x="430" y="80" width="110" height="90" as="geometry" />
        </mxCell>
        <mxCell id="LPqlqlBXjNiI8-WdypCB-2" value="" style="shape=module;jettyWidth=8;jettyHeight=4;" parent="LPqlqlBXjNiI8-WdypCB-1" vertex="1">
          <mxGeometry x="1" width="20" height="20" relative="1" as="geometry">
            <mxPoint x="-27" y="7" as="offset" />
          </mxGeometry>
        </mxCell>
        <mxCell id="LPqlqlBXjNiI8-WdypCB-3" value="WebServer" style="verticalAlign=top;align=left;spacingTop=8;spacingLeft=2;spacingRight=12;shape=cube;size=10;direction=south;fontStyle=4;html=1;whiteSpace=wrap;" parent="1" vertex="1">
          <mxGeometry x="200" y="40" width="210" height="300" as="geometry" />
        </mxCell>
        <mxCell id="LPqlqlBXjNiI8-WdypCB-4" value="SmartMonitoringFrontend" style="shape=module;align=left;spacingLeft=20;align=center;verticalAlign=top;whiteSpace=wrap;html=1;" parent="1" vertex="1">
          <mxGeometry x="210" y="175" width="180" height="70" as="geometry" />
        </mxCell>
        <mxCell id="LPqlqlBXjNiI8-WdypCB-5" value="SmartData" style="shape=module;align=left;spacingLeft=20;align=center;verticalAlign=top;whiteSpace=wrap;html=1;" parent="1" vertex="1">
          <mxGeometry x="210" y="254" width="180" height="70" as="geometry" />
        </mxCell>
        <mxCell id="LPqlqlBXjNiI8-WdypCB-6" value="Postgres database" style="verticalAlign=top;align=left;spacingTop=8;spacingLeft=2;spacingRight=12;shape=cube;size=10;direction=south;fontStyle=4;html=1;whiteSpace=wrap;" parent="1" vertex="1">
          <mxGeometry x="440" y="270" width="180" height="70" as="geometry" />
        </mxCell>
        <mxCell id="LPqlqlBXjNiI8-WdypCB-7" value="SmartBridge" style="shape=module;align=left;spacingLeft=20;align=center;verticalAlign=top;whiteSpace=wrap;html=1;" parent="1" vertex="1">
          <mxGeometry x="210" y="85" width="180" height="80" as="geometry" />
        </mxCell>
        <mxCell id="LPqlqlBXjNiI8-WdypCB-8" value="" style="rounded=0;orthogonalLoop=1;jettySize=auto;html=1;endArrow=none;endFill=0;sketch=0;sourcePerimeterSpacing=0;targetPerimeterSpacing=0;exitX=0.044;exitY=0.857;exitDx=0;exitDy=0;exitPerimeter=0;" parent="1" source="LPqlqlBXjNiI8-WdypCB-7" target="LPqlqlBXjNiI8-WdypCB-10" edge="1">
          <mxGeometry relative="1" as="geometry">
            <mxPoint x="500" y="475" as="sourcePoint" />
          </mxGeometry>
        </mxCell>
        <mxCell id="LPqlqlBXjNiI8-WdypCB-9" value="" style="rounded=0;orthogonalLoop=1;jettySize=auto;html=1;endArrow=halfCircle;endFill=0;entryX=0.5;entryY=0.5;endSize=6;strokeWidth=1;sketch=0;exitX=0.25;exitY=0;exitDx=0;exitDy=0;" parent="1" source="LPqlqlBXjNiI8-WdypCB-4" target="LPqlqlBXjNiI8-WdypCB-10" edge="1">
          <mxGeometry relative="1" as="geometry">
            <mxPoint x="670" y="430" as="sourcePoint" />
          </mxGeometry>
        </mxCell>
        <mxCell id="LPqlqlBXjNiI8-WdypCB-10" value="" style="ellipse;whiteSpace=wrap;html=1;align=center;aspect=fixed;resizable=0;points=[];outlineConnect=0;sketch=0;" parent="1" vertex="1">
          <mxGeometry x="150" y="150" width="10" height="10" as="geometry" />
        </mxCell>
        <mxCell id="LPqlqlBXjNiI8-WdypCB-11" value="«Sensor»&lt;br&gt;&lt;b&gt;SomeSensor&lt;/b&gt;" style="html=1;dropTarget=0;whiteSpace=wrap;" parent="1" vertex="1">
          <mxGeometry x="580" y="80" width="110" height="90" as="geometry" />
        </mxCell>
        <mxCell id="LPqlqlBXjNiI8-WdypCB-12" value="" style="shape=module;jettyWidth=8;jettyHeight=4;" parent="LPqlqlBXjNiI8-WdypCB-11" vertex="1">
          <mxGeometry x="1" width="20" height="20" relative="1" as="geometry">
            <mxPoint x="-27" y="7" as="offset" />
          </mxGeometry>
        </mxCell>
        <mxCell id="LPqlqlBXjNiI8-WdypCB-13" value="Use" style="endArrow=open;endSize=12;dashed=1;html=1;rounded=0;exitX=1;exitY=0.25;exitDx=0;exitDy=0;entryX=0;entryY=0.25;entryDx=0;entryDy=0;" parent="1" source="LPqlqlBXjNiI8-WdypCB-7" target="LPqlqlBXjNiI8-WdypCB-1" edge="1">
          <mxGeometry width="160" relative="1" as="geometry">
            <mxPoint x="330" y="270" as="sourcePoint" />
            <mxPoint x="490" y="270" as="targetPoint" />
          </mxGeometry>
        </mxCell>
        <mxCell id="LPqlqlBXjNiI8-WdypCB-14" value="Use" style="endArrow=open;endSize=12;dashed=1;html=1;rounded=0;exitX=1;exitY=0.25;exitDx=0;exitDy=0;entryX=0;entryY=0.25;entryDx=0;entryDy=0;" parent="1" source="LPqlqlBXjNiI8-WdypCB-1" target="LPqlqlBXjNiI8-WdypCB-11" edge="1">
          <mxGeometry width="160" relative="1" as="geometry">
            <mxPoint x="330" y="270" as="sourcePoint" />
            <mxPoint x="490" y="270" as="targetPoint" />
          </mxGeometry>
        </mxCell>
        <mxCell id="LPqlqlBXjNiI8-WdypCB-18" value="Use" style="endArrow=open;endSize=12;dashed=1;html=1;rounded=0;exitX=1;exitY=0.25;exitDx=0;exitDy=0;entryX=0;entryY=0;entryDx=40;entryDy=180;entryPerimeter=0;" parent="1" source="LPqlqlBXjNiI8-WdypCB-5" target="LPqlqlBXjNiI8-WdypCB-6" edge="1">
          <mxGeometry width="160" relative="1" as="geometry">
            <mxPoint x="330" y="370" as="sourcePoint" />
            <mxPoint x="490" y="370" as="targetPoint" />
          </mxGeometry>
        </mxCell>
        <mxCell id="LPqlqlBXjNiI8-WdypCB-19" value="REST-API" style="text;align=center;fontStyle=1;verticalAlign=middle;spacingLeft=3;spacingRight=3;strokeColor=none;rotatable=0;points=[[0,0.5],[1,0.5]];portConstraint=eastwest;html=1;" parent="1" vertex="1">
          <mxGeometry x="110" y="124" width="80" height="26" as="geometry" />
        </mxCell>
        <mxCell id="LPqlqlBXjNiI8-WdypCB-20" value="REST-API" style="text;align=center;fontStyle=1;verticalAlign=middle;spacingLeft=3;spacingRight=3;strokeColor=none;rotatable=0;points=[[0,0.5],[1,0.5]];portConstraint=eastwest;html=1;" parent="1" vertex="1">
          <mxGeometry x="104" y="264" width="80" height="26" as="geometry" />
        </mxCell>
        <mxCell id="LPqlqlBXjNiI8-WdypCB-21" value="" style="rounded=0;orthogonalLoop=1;jettySize=auto;html=1;endArrow=none;endFill=0;sketch=0;sourcePerimeterSpacing=0;targetPerimeterSpacing=0;exitX=0;exitY=0.5;exitDx=10;exitDy=0;exitPerimeter=0;" parent="1" source="LPqlqlBXjNiI8-WdypCB-5" target="LPqlqlBXjNiI8-WdypCB-23" edge="1">
          <mxGeometry relative="1" as="geometry">
            <mxPoint x="150" y="440" as="sourcePoint" />
          </mxGeometry>
        </mxCell>
        <mxCell id="LPqlqlBXjNiI8-WdypCB-22" value="" style="rounded=0;orthogonalLoop=1;jettySize=auto;html=1;endArrow=halfCircle;endFill=0;entryX=0.5;entryY=0.5;endSize=6;strokeWidth=1;sketch=0;exitX=0.25;exitY=1;exitDx=0;exitDy=0;" parent="1" source="LPqlqlBXjNiI8-WdypCB-4" target="LPqlqlBXjNiI8-WdypCB-23" edge="1">
          <mxGeometry relative="1" as="geometry">
            <mxPoint x="590" y="310" as="sourcePoint" />
          </mxGeometry>
        </mxCell>
        <mxCell id="LPqlqlBXjNiI8-WdypCB-23" value="" style="ellipse;whiteSpace=wrap;html=1;align=center;aspect=fixed;resizable=0;points=[];outlineConnect=0;sketch=0;" parent="1" vertex="1">
          <mxGeometry x="154" y="254" width="10" height="10" as="geometry" />
        </mxCell>
        <mxCell id="LPqlqlBXjNiI8-WdypCB-31" value="" style="rounded=0;orthogonalLoop=1;jettySize=auto;html=1;endArrow=halfCircle;endFill=0;entryX=0.5;entryY=0.5;endSize=6;strokeWidth=1;sketch=0;" parent="1" edge="1">
          <mxGeometry relative="1" as="geometry">
            <mxPoint x="40" y="155" as="sourcePoint" />
            <mxPoint x="135" y="154.5" as="targetPoint" />
          </mxGeometry>
        </mxCell>
        <mxCell id="LPqlqlBXjNiI8-WdypCB-32" value="" style="rounded=0;orthogonalLoop=1;jettySize=auto;html=1;endArrow=halfCircle;endFill=0;entryX=0.5;entryY=0.5;endSize=6;strokeWidth=1;sketch=0;" parent="1" edge="1">
          <mxGeometry relative="1" as="geometry">
            <mxPoint x="55" y="259" as="sourcePoint" />
            <mxPoint x="150" y="258.5" as="targetPoint" />
          </mxGeometry>
        </mxCell>
        <mxCell id="LPqlqlBXjNiI8-WdypCB-33" value="Live Access" style="text;align=center;fontStyle=1;verticalAlign=middle;spacingLeft=3;spacingRight=3;strokeColor=none;rotatable=0;points=[[0,0.5],[1,0.5]];portConstraint=eastwest;html=1;" parent="1" vertex="1">
          <mxGeometry x="10" y="124" width="80" height="26" as="geometry" />
        </mxCell>
        <mxCell id="LPqlqlBXjNiI8-WdypCB-34" value="Historical Access" style="text;align=center;fontStyle=1;verticalAlign=middle;spacingLeft=3;spacingRight=3;strokeColor=none;rotatable=0;points=[[0,0.5],[1,0.5]];portConstraint=eastwest;html=1;" parent="1" vertex="1">
          <mxGeometry x="24" y="228" width="80" height="26" as="geometry" />
        </mxCell>
        <mxCell id="LPqlqlBXjNiI8-WdypCB-35" value="Data collecting from sensors over frontend and live API" style="text;align=center;fontStyle=1;verticalAlign=middle;spacingLeft=3;spacingRight=3;strokeColor=none;rotatable=0;points=[[0,0.5],[1,0.5]];portConstraint=eastwest;html=1;" parent="1" vertex="1">
          <mxGeometry x="140" y="10" width="80" height="26" as="geometry" />
        </mxCell>
        <mxCell id="LPqlqlBXjNiI8-WdypCB-36" value="«SensorScript»&lt;br&gt;&lt;b&gt;SomeSensor.py&lt;/b&gt;" style="html=1;dropTarget=0;whiteSpace=wrap;" parent="1" vertex="1">
          <mxGeometry x="534" y="476" width="110" height="90" as="geometry" />
        </mxCell>
        <mxCell id="LPqlqlBXjNiI8-WdypCB-37" value="" style="shape=module;jettyWidth=8;jettyHeight=4;" parent="LPqlqlBXjNiI8-WdypCB-36" vertex="1">
          <mxGeometry x="1" width="20" height="20" relative="1" as="geometry">
            <mxPoint x="-27" y="7" as="offset" />
          </mxGeometry>
        </mxCell>
        <mxCell id="LPqlqlBXjNiI8-WdypCB-38" value="WebServer" style="verticalAlign=top;align=left;spacingTop=8;spacingLeft=2;spacingRight=12;shape=cube;size=10;direction=south;fontStyle=4;html=1;whiteSpace=wrap;" parent="1" vertex="1">
          <mxGeometry x="204" y="436" width="270" height="334" as="geometry" />
        </mxCell>
        <mxCell id="LPqlqlBXjNiI8-WdypCB-40" value="SmartData" style="shape=module;align=left;spacingLeft=20;align=center;verticalAlign=top;whiteSpace=wrap;html=1;" parent="1" vertex="1">
          <mxGeometry x="226.5" y="670" width="180" height="70" as="geometry" />
        </mxCell>
        <mxCell id="LPqlqlBXjNiI8-WdypCB-41" value="Postgres database" style="verticalAlign=top;align=left;spacingTop=8;spacingLeft=2;spacingRight=12;shape=cube;size=10;direction=south;fontStyle=4;html=1;whiteSpace=wrap;" parent="1" vertex="1">
          <mxGeometry x="530" y="674" width="180" height="70" as="geometry" />
        </mxCell>
        <mxCell id="LPqlqlBXjNiI8-WdypCB-42" value="SmartBridge" style="shape=module;align=left;spacingLeft=20;align=center;verticalAlign=top;whiteSpace=wrap;html=1;" parent="1" vertex="1">
          <mxGeometry x="224" y="481" width="180" height="80" as="geometry" />
        </mxCell>
        <mxCell id="LPqlqlBXjNiI8-WdypCB-43" value="" style="rounded=0;orthogonalLoop=1;jettySize=auto;html=1;endArrow=none;endFill=0;sketch=0;sourcePerimeterSpacing=0;targetPerimeterSpacing=0;exitX=0.044;exitY=0.857;exitDx=0;exitDy=0;exitPerimeter=0;" parent="1" source="LPqlqlBXjNiI8-WdypCB-42" target="LPqlqlBXjNiI8-WdypCB-45" edge="1">
          <mxGeometry relative="1" as="geometry">
            <mxPoint x="504" y="871" as="sourcePoint" />
          </mxGeometry>
        </mxCell>
        <mxCell id="LPqlqlBXjNiI8-WdypCB-45" value="" style="ellipse;whiteSpace=wrap;html=1;align=center;aspect=fixed;resizable=0;points=[];outlineConnect=0;sketch=0;" parent="1" vertex="1">
          <mxGeometry x="154" y="546" width="10" height="10" as="geometry" />
        </mxCell>
        <mxCell id="LPqlqlBXjNiI8-WdypCB-46" value="«Sensor»&lt;br&gt;&lt;b&gt;SomeSensor&lt;/b&gt;" style="html=1;dropTarget=0;whiteSpace=wrap;" parent="1" vertex="1">
          <mxGeometry x="704" y="476" width="110" height="90" as="geometry" />
        </mxCell>
        <mxCell id="LPqlqlBXjNiI8-WdypCB-47" value="" style="shape=module;jettyWidth=8;jettyHeight=4;" parent="LPqlqlBXjNiI8-WdypCB-46" vertex="1">
          <mxGeometry x="1" width="20" height="20" relative="1" as="geometry">
            <mxPoint x="-27" y="7" as="offset" />
          </mxGeometry>
        </mxCell>
        <mxCell id="LPqlqlBXjNiI8-WdypCB-48" value="Use" style="endArrow=open;endSize=12;dashed=1;html=1;rounded=0;exitX=1;exitY=0.25;exitDx=0;exitDy=0;entryX=0;entryY=0.25;entryDx=0;entryDy=0;" parent="1" source="LPqlqlBXjNiI8-WdypCB-42" target="LPqlqlBXjNiI8-WdypCB-36" edge="1">
          <mxGeometry width="160" relative="1" as="geometry">
            <mxPoint x="334" y="666" as="sourcePoint" />
            <mxPoint x="494" y="666" as="targetPoint" />
          </mxGeometry>
        </mxCell>
        <mxCell id="LPqlqlBXjNiI8-WdypCB-49" value="Use" style="endArrow=open;endSize=12;dashed=1;html=1;rounded=0;exitX=1;exitY=0.25;exitDx=0;exitDy=0;entryX=0;entryY=0.25;entryDx=0;entryDy=0;" parent="1" source="LPqlqlBXjNiI8-WdypCB-36" target="LPqlqlBXjNiI8-WdypCB-46" edge="1">
          <mxGeometry width="160" relative="1" as="geometry">
            <mxPoint x="334" y="666" as="sourcePoint" />
            <mxPoint x="494" y="666" as="targetPoint" />
          </mxGeometry>
        </mxCell>
        <mxCell id="LPqlqlBXjNiI8-WdypCB-50" value="Use" style="endArrow=open;endSize=12;dashed=1;html=1;rounded=0;exitX=1;exitY=0.25;exitDx=0;exitDy=0;entryX=0;entryY=0;entryDx=40;entryDy=180;entryPerimeter=0;" parent="1" source="LPqlqlBXjNiI8-WdypCB-40" target="LPqlqlBXjNiI8-WdypCB-41" edge="1">
          <mxGeometry width="160" relative="1" as="geometry">
            <mxPoint x="334" y="766" as="sourcePoint" />
            <mxPoint x="494" y="766" as="targetPoint" />
          </mxGeometry>
        </mxCell>
        <mxCell id="LPqlqlBXjNiI8-WdypCB-51" value="REST-API" style="text;align=center;fontStyle=1;verticalAlign=middle;spacingLeft=3;spacingRight=3;strokeColor=none;rotatable=0;points=[[0,0.5],[1,0.5]];portConstraint=eastwest;html=1;" parent="1" vertex="1">
          <mxGeometry x="114" y="520" width="80" height="26" as="geometry" />
        </mxCell>
        <mxCell id="LPqlqlBXjNiI8-WdypCB-52" value="REST-API" style="text;align=center;fontStyle=1;verticalAlign=middle;spacingLeft=3;spacingRight=3;strokeColor=none;rotatable=0;points=[[0,0.5],[1,0.5]];portConstraint=eastwest;html=1;" parent="1" vertex="1">
          <mxGeometry x="124" y="714" width="80" height="26" as="geometry" />
        </mxCell>
        <mxCell id="LPqlqlBXjNiI8-WdypCB-53" value="" style="rounded=0;orthogonalLoop=1;jettySize=auto;html=1;endArrow=none;endFill=0;sketch=0;sourcePerimeterSpacing=0;targetPerimeterSpacing=0;exitX=0;exitY=0.5;exitDx=10;exitDy=0;exitPerimeter=0;" parent="1" source="LPqlqlBXjNiI8-WdypCB-40" target="LPqlqlBXjNiI8-WdypCB-55" edge="1">
          <mxGeometry relative="1" as="geometry">
            <mxPoint x="154" y="836" as="sourcePoint" />
          </mxGeometry>
        </mxCell>
        <mxCell id="LPqlqlBXjNiI8-WdypCB-55" value="" style="ellipse;whiteSpace=wrap;html=1;align=center;aspect=fixed;resizable=0;points=[];outlineConnect=0;sketch=0;" parent="1" vertex="1">
          <mxGeometry x="159" y="700" width="10" height="10" as="geometry" />
        </mxCell>
        <mxCell id="LPqlqlBXjNiI8-WdypCB-56" value="ServerSideJobs" style="shape=module;align=left;spacingLeft=20;align=center;verticalAlign=top;whiteSpace=wrap;html=1;" parent="1" vertex="1">
          <mxGeometry x="226.5" y="580" width="175" height="60" as="geometry" />
        </mxCell>
        <mxCell id="LPqlqlBXjNiI8-WdypCB-57" value="" style="rounded=0;orthogonalLoop=1;jettySize=auto;html=1;endArrow=halfCircle;endFill=0;endSize=6;strokeWidth=1;sketch=0;exitX=0.25;exitY=0;exitDx=0;exitDy=0;" parent="1" source="LPqlqlBXjNiI8-WdypCB-56" target="LPqlqlBXjNiI8-WdypCB-45" edge="1">
          <mxGeometry relative="1" as="geometry">
            <mxPoint x="614" y="706" as="sourcePoint" />
            <mxPoint x="79" y="681" as="targetPoint" />
          </mxGeometry>
        </mxCell>
        <mxCell id="LPqlqlBXjNiI8-WdypCB-58" value="" style="rounded=0;orthogonalLoop=1;jettySize=auto;html=1;endArrow=halfCircle;endFill=0;entryX=1;entryY=0.5;endSize=6;strokeWidth=1;sketch=0;exitX=0.25;exitY=1;exitDx=0;exitDy=0;entryDx=0;entryDy=0;entryPerimeter=0;" parent="1" source="LPqlqlBXjNiI8-WdypCB-56" target="LPqlqlBXjNiI8-WdypCB-55" edge="1">
          <mxGeometry relative="1" as="geometry">
            <mxPoint x="624" y="716" as="sourcePoint" />
            <mxPoint x="89" y="691" as="targetPoint" />
          </mxGeometry>
        </mxCell>
        <mxCell id="LPqlqlBXjNiI8-WdypCB-59" value="" style="rounded=0;orthogonalLoop=1;jettySize=auto;html=1;endArrow=halfCircle;endFill=0;entryX=0.5;entryY=0.5;endSize=6;strokeWidth=1;sketch=0;" parent="1" edge="1">
          <mxGeometry relative="1" as="geometry">
            <mxPoint x="44" y="551" as="sourcePoint" />
            <mxPoint x="139" y="550.5" as="targetPoint" />
          </mxGeometry>
        </mxCell>
        <mxCell id="LPqlqlBXjNiI8-WdypCB-60" value="" style="rounded=0;orthogonalLoop=1;jettySize=auto;html=1;endArrow=halfCircle;endFill=0;entryX=0.5;entryY=0.5;endSize=6;strokeWidth=1;sketch=0;" parent="1" edge="1">
          <mxGeometry relative="1" as="geometry">
            <mxPoint x="40" y="705" as="sourcePoint" />
            <mxPoint x="135" y="704.5" as="targetPoint" />
          </mxGeometry>
        </mxCell>
        <mxCell id="LPqlqlBXjNiI8-WdypCB-61" value="Live Access" style="text;align=center;fontStyle=1;verticalAlign=middle;spacingLeft=3;spacingRight=3;strokeColor=none;rotatable=0;points=[[0,0.5],[1,0.5]];portConstraint=eastwest;html=1;" parent="1" vertex="1">
          <mxGeometry x="10" y="520" width="80" height="26" as="geometry" />
        </mxCell>
        <mxCell id="LPqlqlBXjNiI8-WdypCB-62" value="Historical Access" style="text;align=center;fontStyle=1;verticalAlign=middle;spacingLeft=3;spacingRight=3;strokeColor=none;rotatable=0;points=[[0,0.5],[1,0.5]];portConstraint=eastwest;html=1;" parent="1" vertex="1">
          <mxGeometry x="24" y="680" width="80" height="26" as="geometry" />
        </mxCell>
        <mxCell id="LPqlqlBXjNiI8-WdypCB-63" value="Data collecting with background service" style="text;align=center;fontStyle=1;verticalAlign=middle;spacingLeft=3;spacingRight=3;strokeColor=none;rotatable=0;points=[[0,0.5],[1,0.5]];portConstraint=eastwest;html=1;" parent="1" vertex="1">
          <mxGeometry x="90" y="410" width="80" height="26" as="geometry" />
        </mxCell>
        <mxCell id="LPqlqlBXjNiI8-WdypCB-64" value="Browser APIs&lt;br&gt;&lt;br&gt;- geolocation API" style="verticalAlign=top;align=left;spacingTop=8;spacingLeft=2;spacingRight=12;shape=cube;size=10;direction=south;fontStyle=4;html=1;whiteSpace=wrap;" parent="1" vertex="1">
          <mxGeometry x="440" y="184" width="180" height="80" as="geometry" />
        </mxCell>
        <mxCell id="LPqlqlBXjNiI8-WdypCB-65" value="Use" style="endArrow=open;endSize=12;dashed=1;html=1;rounded=0;exitX=1;exitY=0.25;exitDx=0;exitDy=0;entryX=0;entryY=0;entryDx=45;entryDy=180;entryPerimeter=0;" parent="1" source="LPqlqlBXjNiI8-WdypCB-4" target="LPqlqlBXjNiI8-WdypCB-64" edge="1">
          <mxGeometry width="160" relative="1" as="geometry">
            <mxPoint x="330" y="360" as="sourcePoint" />
            <mxPoint x="490" y="360" as="targetPoint" />
          </mxGeometry>
        </mxCell>
      </root>
    </mxGraphModel>
  </diagram>
</mxfile>
